<svg width="100" height="100" viewBox="17 -35 80 150" xmlns="http://www.w3.org/2000/svg" style="
    background: #333333;
    justify-content: center;
    align-items: center;
    text-align: center;
"><g id="svgGroup" stroke-linecap="round" fill-rule="nonzero" font-size="9pt" stroke="#007fef" stroke-width="0.25mm" fill="#007fef" style="stroke:#007fef;stroke-width:0.25mm;fill:#007fef"><path d="M 83.3 76.201 L 53.3 4.901 A 7.559 7.559 0 0 1 53.008 4.121 Q 52.468 2.371 53.25 1.301 Q 54.2 0.001 55.9 0.001 Q 57.8 0.001 58.8 2.101 L 87.6 71.001 L 84.7 71.001 L 113.1 2.501 Q 113.422 1.6 113.868 1.051 A 2.555 2.555 0 0 1 114.4 0.551 Q 115.198 0.002 116.393 0.001 A 5.172 5.172 0 0 1 116.4 0.001 A 3.307 3.307 0 0 1 117.318 0.119 A 2.198 2.198 0 0 1 118.8 1.501 A 3.626 3.626 0 0 1 119.057 2.86 Q 119.057 3.787 118.627 4.837 A 7.404 7.404 0 0 1 118.6 4.901 L 88.7 76.201 A 4.546 4.546 0 0 1 88.346 76.846 Q 88.126 77.175 87.87 77.405 A 2.134 2.134 0 0 1 87.45 77.701 A 3.696 3.696 0 0 1 86.803 77.974 A 2.712 2.712 0 0 1 86 78.101 A 2.917 2.917 0 0 1 84.753 77.844 Q 83.806 77.403 83.3 76.201 Z M 0 75.101 L 0 3.001 A 3.713 3.713 0 0 1 0.11 2.072 A 2.596 2.596 0 0 1 0.85 0.801 Q 1.7 0.001 3 0.001 L 22.1 0.001 A 29.756 29.756 0 0 1 29.341 0.849 A 24.463 24.463 0 0 1 35.05 3.051 Q 40.7 6.101 43.9 11.401 Q 47.1 16.701 47.1 23.701 A 24.642 24.642 0 0 1 46.059 30.969 A 21.546 21.546 0 0 1 43.9 35.801 Q 40.7 41.101 35.05 44.101 Q 29.4 47.101 22.1 47.101 L 6 47.101 L 6 75.101 A 3.463 3.463 0 0 1 5.848 76.148 A 2.835 2.835 0 0 1 5.2 77.251 A 2.635 2.635 0 0 1 3.75 78.031 A 3.872 3.872 0 0 1 3 78.101 A 3.256 3.256 0 0 1 1.917 77.927 A 2.806 2.806 0 0 1 0.85 77.251 A 2.871 2.871 0 0 1 0.005 75.303 A 3.82 3.82 0 0 1 0 75.101 Z M 6 6.001 L 6 41.101 L 22.1 41.101 A 23.617 23.617 0 0 0 27.324 40.547 A 18.628 18.628 0 0 0 31.95 38.851 Q 36.2 36.601 38.65 32.701 A 16.027 16.027 0 0 0 41.014 25.571 A 19.93 19.93 0 0 0 41.1 23.701 A 18.757 18.757 0 0 0 40.367 18.372 A 16.092 16.092 0 0 0 38.65 14.501 Q 36.2 10.501 31.95 8.251 A 19.155 19.155 0 0 0 25.791 6.266 A 24.769 24.769 0 0 0 22.1 6.001 L 6 6.001 Z M 42.3 76.501 L 22.4 44.701 L 28.6 43.301 L 47.5 73.501 A 6.937 6.937 0 0 1 47.917 74.229 Q 48.659 75.745 48.05 76.801 A 2.324 2.324 0 0 1 46.871 77.793 Q 46.448 77.966 45.909 78.042 A 6.551 6.551 0 0 1 45 78.101 A 4.294 4.294 0 0 1 44.395 78.061 Q 44.087 78.017 43.838 77.924 A 1.703 1.703 0 0 1 43.35 77.651 A 5.192 5.192 0 0 1 42.764 77.084 A 6.939 6.939 0 0 1 42.3 76.501 Z" vector-effect="non-scaling-stroke"></path></g></svg>